<svg width="349.99999999999994" height="199.16279705761946" viewBox="0 0 349.99999999999994 199.16279705761946" class="css-1j8o68f"><defs id="SvgjsDefs1781"></defs><g id="SvgjsG1782" featurekey="1p4tPl-0" transform="matrix(1.5145714795196963,0,0,1.5145714795196963,98.99700370134423,-29.593714122086364)" fill="#eaa159"><path xmlns="http://www.w3.org/2000/svg" fill="#eaa159" d="M66.843,31.367c-0.534-0.224-1.153,0.022-1.382,0.56c-0.227,0.537,0.025,1.155,0.562,1.382  c7.359,3.113,13.035,9.237,15.572,16.803c0.146,0.442,0.558,0.72,0.999,0.72c0.111,0,0.224-0.017,0.336-0.054  c0.552-0.185,0.848-0.783,0.663-1.335C80.866,41.303,74.759,34.715,66.843,31.367z M95.116,47.858  c-3.514-13.195-13.315-23.76-26.218-28.261c-0.55-0.188-1.151,0.098-1.343,0.649c-0.194,0.55,0.097,1.151,0.647,1.343  c12.244,4.27,21.543,14.293,24.875,26.811c0.126,0.473,0.552,0.784,1.02,0.784c0.089,0,0.181-0.011,0.272-0.035  C94.93,48.998,95.266,48.42,95.116,47.858z M55.18,40.225c-1.913,0-3.851,0.32-5.771,0.955c-2.723-5.286-8.179-8.65-14.161-8.65  c-7.865,0-14.456,5.719-15.673,13.443c-8.083,0.836-14.291,7.616-14.291,15.807c0,7.988,5.961,14.675,13.786,15.739l-0.049,0.208  H55.18c10.339,0,18.75-8.411,18.75-18.75C73.929,48.637,65.518,40.225,55.18,40.225z M55.18,75.617h-33.49l0.004-0.012l-1.258-0.072  c-7.313-0.422-13.043-6.464-13.043-13.753c0-7.36,5.784-13.408,13.169-13.767l0.904-0.044l0.093-0.901  c0.729-7.086,6.613-12.428,13.69-12.428c5.476,0,10.442,3.249,12.654,8.277l0.406,0.92l0.937-0.359  c1.977-0.758,3.975-1.142,5.936-1.142c9.175,0,16.641,7.466,16.641,16.642C71.821,68.152,64.355,75.617,55.18,75.617z"></path></g><g id="SvgjsG1783" featurekey="dYASrj-0" transform="matrix(6.261180936148584,0,0,6.261180936148584,-7.513417421934673,72.18604337331442)" fill="#ffffff"><path d="M14.7 6 c0.32 0 0.5 0.18 0.5 0.5 l0 13 c0 0.32 -0.18 0.5 -0.5 0.5 l-2.2 0 c-0.32 0 -0.5 -0.18 -0.5 -0.5 l0 -8.0828 l-2.54 6.0228 c-0.1 0.26 -0.3 0.38 -0.58 0.38 l-1.36 0 c-0.28 0 -0.48 -0.12 -0.58 -0.38 l-2.54 -6.0228 l0 8.0828 c0 0.32 -0.18 0.5 -0.5 0.5 l-2.2 0 c-0.32 0 -0.5 -0.18 -0.5 -0.5 l0 -13 c0 -0.32 0.18 -0.5 0.5 -0.5 l2.2 0 l0.48 0 c0.28 0 0.48 0.12 0.58 0.38 l3.24 7.7 l3.24 -7.7 c0.1 -0.26 0.3 -0.38 0.58 -0.38 l1.62 0 l1.06 0 z M25.099999999999998 16.92 c0.32 0 0.5 0.18 0.5 0.5 l0 2.08 c0 0.32 -0.18 0.5 -0.5 0.5 l-5.9 0 l-1.1 0 c-0.32 0 -0.5 -0.18 -0.5 -0.5 l0 -13 c0 -0.32 0.18 -0.5 0.5 -0.5 l2.2 0 c0.32 0 0.5 0.18 0.5 0.5 l0 10.42 l4.3 0 z M31.379999999999995 20.28 c-2.62 0 -4.92 -1.26 -5.16 -4.16 c-0.02 -0.34 0.18 -0.52 0.5 -0.52 l2.2 0 c0.3 0 0.46 0.16 0.52 0.48 c0.16 0.72 0.76 1.08 1.94 1.08 c1.3 0 1.72 -0.5 1.72 -1.08 c0 -0.82 -1 -1.18 -2.22 -1.6 c-1.98 -0.68 -4.48 -1.5 -4.48 -4.56 c0 -2.8 2.28 -4.2 4.66 -4.2 c2.34 0 4.58 1.26 4.82 4.16 c0.02 0.34 -0.18 0.52 -0.5 0.52 l-2.2 0 c-0.3 0 -0.46 -0.16 -0.52 -0.48 c-0.16 -0.74 -0.68 -1.08 -1.6 -1.08 c-1 0 -1.46 0.5 -1.46 1.08 c0 0.84 0.82 1.24 1.98 1.66 c2 0.7 4.72 1.42 4.72 4.5 c0 2.8 -2.24 4.2 -4.92 4.2 z M42.9 6.5 c0 -0.32 0.18 -0.5 0.5 -0.5 l2.2 0 c0.32 0 0.5 0.18 0.5 0.5 l0 13 c0 0.32 -0.18 0.5 -0.5 0.5 l-2.2 0 c-0.32 0 -0.5 -0.18 -0.5 -0.5 l0 -13 z M56.599999999999994 6 c0.32 0 0.5 0.18 0.5 0.5 l0 2.08 c0 0.32 -0.18 0.5 -0.5 0.5 l-2.7 0 l0 10.42 c0 0.32 -0.18 0.5 -0.5 0.5 l-2.2 0 c-0.32 0 -0.5 -0.18 -0.5 -0.5 l0 -10.42 l-2.7 0 c-0.32 0 -0.5 -0.18 -0.5 -0.5 l0 -2.08 c0 -0.32 0.18 -0.5 0.5 -0.5 l5.9 0 l2.7 0 z"></path></g></svg>