<svg data-v-fde0c5aa="" xmlns="http://www.w3.org/2000/svg" viewBox="0 0 300 300" class="iconAbove"><!----><defs data-v-fde0c5aa=""><!----></defs><rect data-v-fde0c5aa="" fill="#EADEFA" x="0" y="0" width="300px" height="300px" class="logo-background-square"></rect><defs data-v-fde0c5aa=""><!----></defs><g data-v-fde0c5aa="" id="963da7b2-cb55-481c-ae70-77a6dc5c05a6" fill="#23073F" transform="matrix(6.660072133367745,0,0,6.660072133367745,-0.9505306790059995,163.29574957476126)"><path d="M1.15 14.35L2.90 14.35L2.90 7.34L2.95 7.34L3.71 8.89L5.71 12.59L7.71 8.89L8.47 7.34L8.53 7.34L8.53 14.35L10.28 14.35L10.28 4.58L8.27 4.58L5.80 9.35L5.74 9.35L3.23 4.58L1.15 4.58ZM18.27 14.35L18.27 12.71L14.42 12.71L14.42 4.58L12.57 4.58L12.57 14.35ZM22.90 14.52C25.24 14.52 26.57 13.26 26.57 11.41C26.57 9.80 25.65 8.92 23.67 8.57L22.76 8.40C21.83 8.23 21.41 7.92 21.41 7.18C21.41 6.45 21.95 6.03 23.00 6.03C24.04 6.03 24.71 6.44 25.19 7.04L26.45 5.85C25.66 4.91 24.57 4.41 23.10 4.41C20.92 4.41 19.56 5.54 19.56 7.29C19.56 8.89 20.51 9.83 22.48 10.14L23.41 10.28C24.43 10.46 24.74 10.86 24.74 11.52C24.74 12.35 24.15 12.89 23.02 12.89C22.01 12.89 21.18 12.47 20.51 11.69L19.26 12.89C20.09 13.86 21.24 14.52 22.90 14.52ZM35.76 14.35L35.76 12.87L34.45 12.87L34.45 6.06L35.76 6.06L35.76 4.58L31.32 4.58L31.32 6.06L32.61 6.06L32.61 12.87L31.32 12.87L31.32 14.35ZM44.18 6.22L44.18 4.58L36.79 4.58L36.79 6.22L39.56 6.22L39.56 14.35L41.41 14.35L41.41 6.22Z"></path></g><defs data-v-fde0c5aa=""><linearGradient data-v-fde0c5aa="" gradientTransform="rotate(25)" id="9a5c0dc2-0189-4f73-9447-397dd3c5bf56" x1="0%" y1="0%" x2="100%" y2="0%"><stop data-v-fde0c5aa="" offset="0%" stop-color="#E90DCA" stop-opacity="1"></stop><stop data-v-fde0c5aa="" offset="100%" stop-color="#1536F1" stop-opacity="1"></stop></linearGradient></defs><g data-v-fde0c5aa="" id="605a3b00-1b5e-452f-91fe-60cd02e26532" stroke="none" fill="url(#9a5c0dc2-0189-4f73-9447-397dd3c5bf56)" transform="matrix(2.3625730994152048,0,0,2.3625730994152048,31.871108451084787,-10.795317131176333)"><path d="M28.81 68.5a1.5 1.5 0 1 0 1.5 1.5 1.5 1.5 0 0 0-1.5-1.5zm-5 0a1.5 1.5 0 1 0 1.5 1.5 1.5 1.5 0 0 0-1.5-1.5zm48.64-27a1 1 0 0 0 1-1.1 13.5 13.5 0 0 0-22.2-9.19 1 1 0 0 0-.07 1.48 1 1 0 0 0 1.33.08 11.49 11.49 0 0 1 18.96 7.83 1 1 0 0 0 .99.9zm7.54 0a20 20 0 0 0-36-12 15 15 0 0 0-24 12A15 15 0 0 0 5.11 58.33a15.2 15.2 0 0 0 13.62 13.08 1.5 1.5 0 0 0 .3-3 12.18 12.18 0 0 1-11-10.75A12 12 0 0 1 19.92 44.5 3.16 3.16 0 0 0 23 41.36 12 12 0 0 1 35 29.5a11.88 11.88 0 0 1 7.2 2.42 3 3 0 0 0 1.81.6h.42a3 3 0 0 0 2-1.17A17 17 0 0 1 77 41.56a3 3 0 0 0 3 2.94 12 12 0 0 1 11.94 13.23A12.23 12.23 0 0 1 79.66 68.5H71.5a1.5 1.5 0 0 0 0 3h8.1a15.27 15.27 0 0 0 15.29-13.17A15 15 0 0 0 80 41.5zm-30 35a1 1 0 1 0 1 1 1 1 0 0 0-.99-1zm0-10a12 12 0 0 0-9.15 4.25 1 1 0 0 0 .16 1.48 1 1 0 0 0 1.32-.16 10 10 0 0 1 15.29 0 1 1 0 0 0 1.32.16 1 1 0 0 0 .19-1.48A12 12 0 0 0 50 66.5zm0 5a7 7 0 0 0-5 2.11 1 1 0 0 0 .16 1.51 1 1 0 0 0 1.31-.12 5 5 0 0 1 7.09 0 1 1 0 0 0 1.29.13 1 1 0 0 0 .16-1.52 7 7 0 0 0-5-2.11zm0-10a17 17 0 0 0-13.27 6.39 1 1 0 0 0 .19 1.46 1 1 0 0 0 1.34-.18 15 15 0 0 1 23.46 0 1 1 0 0 0 1.34.18 1 1 0 0 0 .19-1.46A17 17 0 0 0 50 61.5z"></path></g><!----></svg>